<svg viewBox="0 0 148 144" fill="none" xmlns="http://www.w3.org/2000/svg">
<mask id="mask0_33_8151" style="mask-type:luminance" maskUnits="userSpaceOnUse" x="0" y="-25">
<path d="M147.805 133.684L105.286 -25L0.000219226 3.21128L42.5195 161.895L147.805 133.684Z" fill="white"/>
</mask>
<g mask="url(#mask0_33_8151)">
<path d="M6.44884 2.00207C1.44606 22.6639 9.71392 44.4442 24.9297 58.734C32.2518 65.6101 40.8739 70.9091 50.0607 74.7814C59.439 78.7348 70.5473 82.3965 80.7775 81.054C87.9128 80.1184 98.6108 74.1616 95.2661 65.1595C92.3234 57.2393 81.3839 51.8344 73.4599 53.4328C64.5857 55.2236 60.1671 64.7519 60.6998 73.2475C61.3341 83.3848 67.4344 93.0596 73.8372 100.596C87.8502 117.091 109.121 126.993 130.521 126.469C132.562 126.419 132.823 123.194 130.754 123.226C115.22 123.461 100.017 118.397 87.4895 108.976C81.1048 104.174 75.4784 98.2412 71.1041 91.5027C66.0944 83.7854 61.3538 73.7162 65.075 64.5477C69.1827 54.4308 80.2918 54.4927 87.9541 60.6307C92.4283 64.2148 94.8282 69.273 90.1126 73.8794C86.2851 77.6195 80.3722 78.5051 75.2479 78.2465C58.8285 77.4221 41.0048 68.992 28.6303 58.1741C13.1122 44.6082 3.76497 23.3667 8.44537 2.71875C8.74474 1.39413 6.77338 0.659319 6.44884 2.00207Z" fill="#180A0A"/>
<path d="M109.799 113.232C120.855 117.642 131.935 121.997 142.943 126.533C142.868 125.393 142.794 124.253 142.719 123.111C138.059 126.174 133.393 129.191 128.521 131.905C124.04 134.402 118.786 136.2 114.729 139.335C113.448 140.327 114.612 142.428 116.095 142.137C121.289 141.118 126.353 137.708 130.905 135.098C135.665 132.369 140.325 129.429 144.758 126.182C145.897 125.348 145.352 123.457 144.14 123.029C132.933 119.062 121.788 114.909 110.625 110.814C109.083 110.248 108.284 112.628 109.799 113.232Z" fill="#180A0A"/>
</g>
</svg>
