<svg width="1440" height="6" viewBox="0 0 1440 6" fill="none" xmlns="http://www.w3.org/2000/svg">
<g clip-path="url(#clip0_102_3813)">
<path fill-rule="evenodd" clip-rule="evenodd" d="M1440 6H0V0.87431L4.55959 1.71611L11.9359 1.67966L19.1612 2.61509L26.4728 2.74872L33.8276 2.45716L41.0961 3.05243L48.4077 3.34399L55.7408 3.40473L63.0524 3.91496L70.3209 3.12532L77.6325 3.14962L84.9226 2.8702L92.2342 3.6234L99.5458 3.36829L106.857 3.05243L114.169 2.59079L121.459 2.76087L128.728 3.50192L136.039 3.41688L143.351 3.36829L150.641 3.89066L157.952 3.07673L165.242 3.11317L172.576 3.25895L179.822 2.57864L187.177 2.9188L194.446 2.33568L201.8 2.56649L209.09 2.35997L216.402 1.75255L223.671 2.62724L231.004 1.89833L238.272 2.35997L245.605 1.97122L252.917 2.1899L260.207 2.5422L267.497 2.35997L274.852 2.76087L282.099 2.06841L289.346 1.24232L296.743 2.10486L304.034 1.53388L311.345 0.73209L318.614 1.63107L325.882 1.98337L333.28 1.64322L340.505 2.60294L347.817 2.76087L355.107 3.25895L362.462 3.2468L369.709 2.61509L377.085 3.18606L384.375 3.05243L391.687 2.73657L398.977 2.5422L406.331 2.55435L413.578 1.30307L420.825 2.39642H428.137L435.448 2.67583L442.781 2.55435L450.093 2.72442H457.426L464.716 4L472.071 3.67199L479.361 3.33184L486.5 1.89833L493.812 1.65537L501.166 1.64322L508.586 2.08056L515.811 1.50959L523.08 1.83759L530.391 1.89833L537.703 2.1656L545.036 2.17775L552.24 3.2954L559.573 3.45332L566.928 3.63555L574.304 3.51407L581.53 2.80946L588.776 1.95908L596.11 2.00767L603.508 2.45716L610.776 1.8133L618.066 1.40025L625.313 2.03197L632.668 1.42455L639.979 1.50959L647.269 1.91048L654.516 2.84591L661.914 1.93478L669.204 2.40857L676.473 2.03197L683.806 2.80946L691.117 2.78516L698.407 2.39642L705.719 2.56649L713.031 2.20204L720.321 1.7647L727.611 1.77685L734.944 1.36381L742.234 1.54603L749.502 2.45716L756.814 2.23849L764.126 2.59079L771.437 2.45716L778.727 3.07673L786.06 2.37212L793.307 3.25895L800.619 3.18606L807.952 2.73657L815.242 3.21036L822.575 3.16176L829.865 2.63938L837.177 3.40473L844.445 2.67583L851.757 3.08887L859.069 3.48977L866.38 3.28325L873.692 2.83376L881.003 2.59079L888.294 2.88235L895.583 2.72442L902.895 2.48146L910.185 2.37212L917.497 2.33568L924.808 2.5179L932.142 2.8945L939.41 2.65153L946.722 2.46931L954.012 2.09271L961.323 2.10486L968.613 1.58248L975.946 1.61892L983.258 2.39642L990.548 2.17775L997.838 1.54603L1005.15 2.46931L1012.44 1.87404L1019.75 2.21419L1027.06 2.35997L1034.37 2.1656L1041.66 2.17775L1048.95 2.08056L1056.27 2.22634L1063.56 2.17775L1070.89 2.38427L1078.2 1.36381L1085.49 1.82545L1092.78 1.52174L1100.09 2.44501L1107.38 1.98337L1114.69 1.58248L1122.01 2.35997L1129.32 2.1656L1136.63 1.63107L1143.92 1.72826L1151.21 1.21803L1158.52 2.42071L1165.81 2.17775L1173.14 2.28708L1180.43 2.37212L1187.77 1.48529L1195.08 1.42455L1202.35 2.32353L1209.64 2.42071L1216.97 2.01982L1224.26 2.62724L1231.57 2.00767L1238.88 2.21419L1246.2 2.55435L1253.44 1.44885L1260.8 1.91048L1268.11 2.08056L1275.38 1.02365L1282.71 1.58248L1290.04 1.26662L1297.29 1.98337L1304.6 1.94693L1311.91 2.08056L1319.2 2.4936L1326.56 1.59463L1333.85 2.40857L1341.16 2.27493L1348.47 1.99552L1355.74 2.83376L1363.05 3.02813L1370.34 3.19821L1377.68 2.77302L1384.99 3.33184L1392.28 3.2711L1399.59 3.30754L1406.9 2.59079L1414.19 3.57481L1421.5 2.93094L1428.81 3.38043L1436.25 3.45332L1440 2.29689V6Z" fill="#CECEFF"/>
</g>
<defs>
<clipPath id="clip0_102_3813">
<rect width="1440" height="6" fill="white" transform="matrix(1 0 0 -1 0 6)"/>
</clipPath>
</defs>
</svg>
