<svg width="130" height="85" viewBox="0 0 130 85" fill="none" xmlns="http://www.w3.org/2000/svg">
<path d="M14.8909 42.3726C13.3211 42.1285 17.2784 66.05 19.0466 65.6927C20.8149 65.3354 34.3633 56.5268 65.2012 57.3896C96.0392 58.2554 109.033 62.6887 110.122 60.5679C111.211 58.45 114.674 36.9224 112.568 36.4779C110.462 36.0334 99.6309 43.5027 95.5767 42.451C91.5224 41.3964 88.7201 29.8337 86.3375 31.815C83.9547 33.7964 71.5384 42.7473 69.5904 42.1372C67.6425 41.5301 65.9662 29.7814 63.3913 30.1532C60.8167 30.5251 51.7309 44.9001 49.3115 44.9466C46.8917 44.9901 37.2086 36.4633 34.4632 36.353C31.7178 36.2426 28.3934 48.0871 24.9937 47.5061C21.5938 46.925 17.6425 42.8054 14.8909 42.3726Z" fill="#F4B442"/>
<path d="M89.9819 23.7239C88.4268 24.6361 87.2075 25.9958 85.8452 27.1695C84.1021 28.6715 82.4397 30.278 80.626 31.69C77.7231 33.9473 75.7586 33.9037 72.8705 31.5592C69.6333 28.9329 67.0915 25.6965 64.9036 22.1667C64.3597 21.2893 63.9986 20.258 63.1169 19.6363C62.103 20.1156 61.7534 21.0656 61.2151 21.8326C58.9008 25.1358 56.5264 28.3897 53.7888 31.3588C52.7511 32.4831 51.6689 33.59 50.4763 34.5429C48.0809 36.4574 46.0432 36.3528 43.8222 34.2117C41.3963 31.873 39.4757 29.1014 37.4116 26.4548C36.5987 25.4118 35.7733 24.3804 34.9723 23.3665C33.8271 24.0202 33.6438 25.0341 33.2179 25.8621C31.2836 29.6186 29.1619 33.2617 26.7692 36.745C26.2274 37.5323 25.6632 38.3226 25.0066 39.014C23.069 41.0564 21.058 41.2452 18.9299 39.4033C17.267 37.9623 15.8274 36.2686 14.2451 34.7317C13.5138 34.0229 12.9704 33.0554 11.5697 32.6371C11.9893 40.1035 13.7052 47.2793 13.7902 54.8561C12.2174 54.2983 12.0436 53.0636 11.7735 52.0787C11.0908 49.5832 10.513 47.0556 10.0213 44.5165C9.07387 39.6241 8.21512 34.7143 7.31825 29.8103C7.28373 29.6214 7.22496 29.4384 7.19727 29.2496C6.99164 27.8406 6.46019 26.2892 7.98441 25.313C9.68021 24.2265 10.8868 25.5571 12.057 26.478C14.7767 28.6192 17.2062 31.077 19.5602 33.6074C22.0681 36.3063 22.091 36.3209 24.2758 33.2965C27.0408 29.4733 29.333 25.3828 31.0721 20.9901C31.3193 20.3655 31.5006 19.7031 31.8309 19.1278C32.8315 17.3789 34.2989 17.0564 35.9296 18.2156C36.9578 18.9448 37.7021 19.9616 38.4705 20.9436C40.8949 24.0406 43.2624 27.1811 45.7411 30.2345C47.3767 32.2478 47.6917 32.2507 49.6227 30.4785C53.3896 27.0184 56.4941 22.9976 59.3741 18.7908C59.9699 17.9222 60.5202 17.007 61.2169 16.2226C62.4978 14.7845 63.7822 14.6741 65.2246 15.9379C66.0805 16.6874 66.7928 17.6171 67.4915 18.5265C69.7155 21.42 72.0193 24.2381 74.6471 26.7831C77.1656 29.2235 77.1798 29.2757 80.0543 27.0736C82.0327 25.56 83.9263 23.9331 85.8382 22.3323C86.7203 21.5915 87.5401 20.7809 88.4143 20.0314C91.2126 17.6346 93.1294 18.1226 94.4557 21.6409C95.0969 23.3433 95.5257 25.1213 96.1236 26.8412C96.6264 28.288 97.1616 29.7318 97.8121 31.1176C98.9492 33.5377 99.3187 33.7294 101.805 32.9741C103.542 32.4482 105.255 31.7946 106.903 31.0334C109.601 29.79 112.236 28.41 114.9 27.091C115.673 26.7075 116.44 26.3095 117.233 25.9696C120.878 24.4124 122.8 25.5716 122.813 29.5808C122.838 37.0617 122.677 44.5455 121.709 51.9829C121.449 53.9787 121.159 55.9717 120.883 57.9647C120.844 58.2494 120.827 58.5399 120.766 58.8188C120.543 59.8502 120.397 61.1633 119.114 61.1866C117.771 61.2127 117.65 59.8792 117.523 58.8479C117.184 56.0879 116.8 53.328 116.915 50.5332C117.147 44.8796 117.396 39.229 117.644 33.5755C117.665 33.0961 117.753 32.6196 117.762 32.1432C117.784 31.0131 117.19 30.8242 116.283 31.2513C115.416 31.6609 114.567 32.1083 113.716 32.5499C110.568 34.1856 107.453 35.8967 104.113 37.1227C97.892 39.4033 95.1067 38.1483 92.7027 31.9834C91.9706 30.1066 91.3889 28.1805 90.9915 26.1991C90.8268 25.3798 90.8003 24.4908 89.9819 23.7239Z" fill="#180A0A"/>
<path d="M64.9228 78.3506C78.0776 78.1909 91.1778 77.3396 104.166 75.1229C104.544 75.059 104.923 74.9951 105.302 74.937C106.465 74.7656 107.311 74.3531 107.124 72.915C107.011 72.0434 107.06 71.1225 108.054 70.7157C109.163 70.2625 109.85 71.0324 110.526 71.7151C113.773 74.9864 112.999 78.891 108.744 80.6516C106.503 81.5812 104.108 81.8805 101.735 82.1681C84.5408 84.2598 67.3002 84.7857 50.0345 83.3186C42.2938 82.662 34.5982 81.5638 27.1048 79.3849C24.3362 78.5772 21.6128 77.6389 19.1445 76.1194C16.6291 74.5709 14.3013 72.761 14.4469 69.4229C14.5875 66.201 16.9894 64.6642 19.5367 63.3714C23.154 61.5295 27.0458 60.4516 30.9629 59.5336C45.5302 56.1229 60.269 54.8417 75.2305 55.8207C86.3496 56.547 97.3824 57.805 108.305 59.9926C109.804 60.2947 111.274 60.7567 112.737 61.207C113.376 61.4016 114.141 61.7677 114.008 62.5463C113.834 63.5747 112.848 63.3568 112.125 63.3568C109.81 63.3539 107.559 62.8194 105.289 62.4533C91.8303 60.2715 78.3257 58.5545 64.655 58.7608C52.0222 58.9525 39.626 60.7509 27.5598 64.5799C25.0924 65.3644 22.6326 66.2156 20.4479 67.6478C18.3355 69.0307 18.3153 70.0853 20.4044 71.5466C23.0462 73.3944 26.1289 74.1962 29.1957 74.9835C35.2557 76.5349 41.4516 77.2815 47.6673 77.7406C53.4048 78.1618 59.1563 78.5366 64.9228 78.3506Z" fill="#180A0A"/>
<path d="M97.9906 2.78343C97.8444 5.27029 97.5153 7.7223 96.578 10.0523C96.219 10.9442 95.8305 11.9872 94.7022 11.9465C93.3611 11.8971 93.1499 10.6362 92.9698 9.64265C92.3934 6.46145 93.4596 3.62596 95.0656 0.956069C95.4825 0.261724 96.1306 -0.174075 96.9929 0.0670576C97.9348 0.331431 97.8988 1.18266 97.9868 1.92639C98.0199 2.2111 97.992 2.49872 97.9906 2.78343Z" fill="#180A0A"/>
<path d="M129.963 14.2123C129.162 16.5917 127.755 18.8287 126.032 20.8769C125.645 21.3388 125.077 21.4928 124.487 21.2168C123.987 20.9815 123.833 20.5021 123.905 20.0257C124.322 17.2599 125.168 14.6597 127.163 12.5941C127.689 12.0509 128.379 11.647 129.214 12.0567C130.067 12.475 130.045 13.2391 129.963 14.2123Z" fill="#180A0A"/>
<path d="M7.84211 21.6381C7.93383 22.5416 7.02118 23.0645 6.01932 22.5503C3.77255 21.394 1.9004 19.7584 0.351893 17.7654C0.0523073 17.379 -0.153004 16.9055 0.146814 16.4377C0.504881 15.8799 1.08171 15.8102 1.66888 15.9816C4.4327 16.7834 6.11046 18.8636 7.64182 21.1035C7.746 21.2575 7.77787 21.4579 7.84211 21.6381Z" fill="#180A0A"/>
<path d="M35.9942 7.86426C36.045 8.62542 35.946 9.34591 35.2249 9.60157C34.4472 9.87756 33.9733 9.24423 33.6627 8.65737C32.8168 7.06241 31.9222 5.46744 31.7232 3.63425C31.6149 2.63195 31.313 1.35947 32.7284 1.03409C33.8949 0.766808 34.3626 1.78945 34.7455 2.66682C35.4756 4.34022 35.7321 6.13275 35.9942 7.86426Z" fill="#180A0A"/>
<path d="M66.1133 6.16498C66.0825 6.83028 66.1243 7.50429 65.8036 8.126C65.2472 9.20093 64.294 9.36941 63.5334 8.4136C62.4777 7.08882 62.0186 5.54907 62.3626 3.84952C62.5213 3.06802 62.91 2.3853 63.7964 2.26618C64.8239 2.12964 65.3582 2.75717 65.7036 3.63745C66.0246 4.45381 66.1072 5.30213 66.1133 6.16498Z" fill="#180A0A"/>
</svg>
