<svg width="40" height="40" viewBox="0 0 40 40" fill="none" xmlns="http://www.w3.org/2000/svg">
<g clip-path="url(#clip0_132_2752)">
<ellipse cx="20" cy="18" rx="18" ry="17" fill="#525AFF"/>
<path d="M17.4787 39.7731C19.8921 39.2732 24.7355 37.7154 28 33L19 34C19 36.3578 17.9576 38.0207 17.1018 38.9887C16.8304 39.2956 17.0775 39.8562 17.4787 39.7731Z" fill="#525AFF"/>
<path d="M18.7324 34.9585C27.8224 34.3442 35 26.9864 35 18C35 9.01364 27.8224 1.65582 18.7324 1.0415C19.1512 1.01399 19.5739 1 20 1C29.9411 1 38 8.61116 38 18C38 27.3888 29.9411 35 20 35C19.5739 35 19.1512 34.986 18.7324 34.9585Z" fill="#000689"/>
<circle cx="17.8253" cy="27.0426" r="1.95767" fill="#EFEDEE"/>
<path d="M18.5332 12.6882C18.3826 13.5917 17.3285 14.3446 16.425 14.3446C14.9189 14.3446 14.136 13.0797 14.0155 12.2364C13.8649 11.1823 14.7685 8.47164 17.0273 7.26693C19.2862 6.06221 22.2978 6.36338 23.8037 7.5681C25.6107 9.01364 26.0626 12.2364 25.3096 14.3446C24.5233 16.5462 20.7919 19.9165 20.3402 20.5188C19.8884 21.1212 19.4751 21.6929 19.3245 22.2953C19.174 22.8976 18.7222 23.5 17.9692 23.5C17.2163 23.5 16.7645 22.7619 16.7645 21.9941C16.7645 21.2412 17.0272 20.2931 17.9309 19.1635C19.1354 17.6578 22.599 15.2482 22.7497 12.2364C22.8562 10.1094 21.3944 9.37518 20.3403 9.37518C19.2862 9.37518 18.6838 10.1281 18.5332 10.7305C18.3826 11.3329 18.6838 11.7846 18.5332 12.6882Z" fill="#EFEDEE"/>
</g>
<defs>
<clipPath id="clip0_132_2752">
<rect width="40" height="40" fill="white"/>
</clipPath>
</defs>
</svg>
