<svg width="72" height="72" viewBox="0 0 72 72" fill="none" xmlns="http://www.w3.org/2000/svg">
<path d="M27.1277 45.24C25.8157 45.24 24.6077 45.024 23.5037 44.592C22.3997 44.16 21.4397 43.56 20.6237 42.792C19.8077 42.008 19.1757 41.096 18.7277 40.056C18.2797 39 18.0557 37.848 18.0557 36.6C18.0557 35.352 18.2797 34.208 18.7277 33.168C19.1757 32.112 19.8077 31.2 20.6237 30.432C21.4397 29.648 22.3997 29.04 23.5037 28.608C24.6077 28.176 25.8077 27.96 27.1037 27.96C28.4157 27.96 29.6157 28.176 30.7037 28.608C31.8077 29.04 32.7677 29.648 33.5837 30.432C34.3997 31.2 35.0317 32.112 35.4797 33.168C35.9277 34.208 36.1517 35.352 36.1517 36.6C36.1517 37.848 35.9277 39 35.4797 40.056C35.0317 41.112 34.3997 42.024 33.5837 42.792C32.7677 43.56 31.8077 44.16 30.7037 44.592C29.6157 45.024 28.4237 45.24 27.1277 45.24ZM27.1037 42.504C27.9517 42.504 28.7357 42.36 29.4557 42.072C30.1757 41.784 30.7997 41.376 31.3277 40.848C31.8557 40.304 32.2637 39.68 32.5517 38.976C32.8557 38.256 33.0077 37.464 33.0077 36.6C33.0077 35.736 32.8557 34.952 32.5517 34.248C32.2637 33.528 31.8557 32.904 31.3277 32.376C30.7997 31.832 30.1757 31.416 29.4557 31.128C28.7357 30.84 27.9517 30.696 27.1037 30.696C26.2557 30.696 25.4717 30.84 24.7517 31.128C24.0477 31.416 23.4237 31.832 22.8797 32.376C22.3517 32.904 21.9357 33.528 21.6317 34.248C21.3437 34.952 21.1997 35.736 21.1997 36.6C21.1997 37.448 21.3437 38.232 21.6317 38.952C21.9357 39.672 22.3517 40.304 22.8797 40.848C23.4077 41.376 24.0317 41.784 24.7517 42.072C25.4717 42.36 26.2557 42.504 27.1037 42.504Z" fill="#180A0A"/>
<path d="M39.4588 45V28.2H46.3708C47.8588 28.2 49.1308 28.44 50.1868 28.92C51.2588 29.4 52.0828 30.088 52.6588 30.984C53.2348 31.88 53.5228 32.944 53.5228 34.176C53.5228 35.408 53.2348 36.472 52.6588 37.368C52.0828 38.248 51.2588 38.928 50.1868 39.408C49.1308 39.872 47.8588 40.104 46.3708 40.104H41.1868L42.5788 38.688V45H39.4588ZM50.4508 45L46.2028 38.904H49.5388L53.8108 45H50.4508ZM42.5788 39.024L41.1868 37.536H46.2268C47.6028 37.536 48.6348 37.24 49.3228 36.648C50.0268 36.056 50.3788 35.232 50.3788 34.176C50.3788 33.104 50.0268 32.28 49.3228 31.704C48.6348 31.128 47.6028 30.84 46.2268 30.84H41.1868L42.5788 29.304V39.024Z" fill="#180A0A"/>
<path d="M4.50043 48.9327C10.6073 80.2717 67.7815 76.4999 69.7708 39.0135C72.0003 -3.00006 20.2929 -2.66073 12.683 12.342C12.4012 12.8976 12.4473 13.9241 12.683 13.7033C33.3056 -5.6057 70.8676 6.59098 67.6855 39.0135C65.5 72.4999 8.70786 77.2455 5.65138 43.3761C3.00039 13.9999 30.4079 3.89602 49.8794 10.6194C50.4617 10.3416 50.0033 9.12674 49.3649 8.86911C28.4851 1.69373 -1.49961 12.7033 4.50043 48.9327Z" fill="black"/>
</svg>
