<svg width="24" height="24" viewBox="0 0 24 24" fill="none" xmlns="http://www.w3.org/2000/svg">
<mask id="mask0_23_4921" style="mask-type:alpha" maskUnits="userSpaceOnUse" x="2" y="2" width="20" height="20">
<path fill-rule="evenodd" clip-rule="evenodd" d="M12 22C17.5228 22 22 17.5228 22 12C22 6.47715 17.5228 2 12 2C6.47715 2 2 6.47715 2 12C2 17.5228 6.47715 22 12 22Z" fill="white"/>
</mask>
<g mask="url(#mask0_23_4921)">
<path fill-rule="evenodd" clip-rule="evenodd" d="M-0.974609 2.11841H38.0004V3.69696H-0.974609V2.11841ZM-0.974609 5.27551H38.0004V6.85406H-0.974609V5.27551ZM-0.974609 8.4286H38.0004V10.0112H-0.974609V8.4286ZM-0.974609 11.5857H38.0004V13.1643H-0.974609V11.5857ZM-0.974609 14.7428H38.0004V16.3214H-0.974609V14.7428ZM-0.974609 17.8959H38.0004V19.4745H-0.974609V17.8959ZM-0.974609 21.053H38.0004V22.6316H-0.974609V21.053Z" fill="#BD3D44"/>
<path fill-rule="evenodd" clip-rule="evenodd" d="M-0.974609 3.6969H38.0004V5.27545H-0.974609V3.6969ZM-0.974609 6.854H38.0004V8.42854H-0.974609V6.854ZM-0.974609 10.0071H38.0004V11.5856H-0.974609V10.0071ZM-0.974609 13.1642H38.0004V14.7427H-0.974609V13.1642ZM-0.974609 16.3213H38.0004V17.8998H-0.974609V16.3213ZM-0.974609 19.4744H38.0004V21.0529H-0.974609V19.4744Z" fill="white"/>
<path fill-rule="evenodd" clip-rule="evenodd" d="M-0.974609 2.11841H14.6146V13.1643H-0.974609V2.11841Z" fill="#192F5D"/>
<path fill-rule="evenodd" clip-rule="evenodd" d="M0.323627 2.59119L0.46786 3.02789H0.924598L0.556003 3.29633L0.696229 3.73704L0.323627 3.4646L-0.0449682 3.73303L0.0952584 3.29633L-0.277344 3.02789H0.187407L0.323627 2.59119ZM2.92383 2.59119L3.06406 3.02789H3.5248L3.1522 3.29633L3.29242 3.73704L2.92383 3.4646L2.55123 3.73303L2.69145 3.29633L2.32286 3.02789H2.7796L2.92383 2.59119ZM5.52002 2.59119L5.66426 3.02789H6.11699L5.74839 3.29633L5.88862 3.73704L5.51602 3.4646L5.14742 3.73303L5.28765 3.29633L4.91505 3.02789H5.37579L5.52002 2.59119ZM8.12023 2.59119L8.26045 3.02789H8.7212L8.34859 3.29633L8.49283 3.73704L8.12023 3.4646L7.74762 3.73303L7.89186 3.29633L7.51925 3.02789H7.97599L8.12023 2.59119ZM10.7164 2.59119L10.8607 3.02789H11.3174L10.9488 3.29633L11.089 3.73704L10.7164 3.4646L10.3478 3.73303L10.4881 3.29633L10.1195 3.02789H10.5762L10.7164 2.59119ZM13.3166 2.59119L13.4568 3.02789H13.9176L13.545 3.29633L13.6892 3.73704L13.3166 3.4646L12.944 3.73303L13.0883 3.29633L12.7157 3.02789H13.1764L13.3166 2.59119ZM1.62573 3.69697L1.76596 4.13368H2.2267L1.8541 4.40211L1.99032 4.83882L1.62974 4.57038L1.25714 4.83882L1.38935 4.40211L1.02877 4.13368H1.4855L1.62573 3.69697ZM4.22193 3.69697L4.36616 4.13368H4.8229L4.45029 4.40211L4.59453 4.83882L4.22193 4.57038L3.84932 4.83882L3.99356 4.40211L3.62095 4.13368H4.0817L4.22193 3.69697ZM6.82213 3.69697L6.96235 4.13368H7.4231L7.0505 4.40211L7.19072 4.83882L6.82213 4.57038L6.44953 4.83882L6.58975 4.40211L6.22116 4.13368H6.6779L6.82213 3.69697ZM9.41832 3.69697L9.56256 4.13368H10.0193L9.64669 4.40211L9.79093 4.83882L9.41832 4.57038L9.04973 4.83882L9.18995 4.40211L8.81735 4.13368H9.2821L9.41832 3.69697ZM12.0185 3.69697L12.1588 4.13368H12.6195L12.2469 4.40211L12.3871 4.83882L12.0185 4.57038L11.6459 4.83882L11.7861 4.40211L11.4176 4.13368H11.8743L12.0185 3.69697ZM0.323627 4.79875L0.46786 5.24347H0.924598L0.556003 5.51191L0.696229 5.94861L0.323627 5.67617L-0.0449682 5.94861L0.0952584 5.5079L-0.277344 5.23947H0.187407L0.323627 4.79875ZM2.92383 4.79875L3.06406 5.23947H3.5248L3.1522 5.5079L3.29242 5.9446L2.92383 5.67216L2.55123 5.9446L2.69145 5.50389L2.32286 5.23546H2.7796L2.92383 4.79875ZM5.52002 4.79875L5.66426 5.23947H6.11699L5.74839 5.5079L5.88862 5.9446L5.51602 5.67216L5.14742 5.9446L5.28765 5.50389L4.91505 5.23546H5.37579L5.52002 4.79875ZM8.12023 4.79875L8.26045 5.23947H8.7212L8.34859 5.5079L8.49283 5.9446L8.12023 5.67216L7.74762 5.9446L7.89186 5.50389L7.51925 5.23546H7.97599L8.12023 4.79875ZM10.7164 4.79875L10.8607 5.23947H11.3174L10.9488 5.5079L11.089 5.9446L10.7164 5.67216L10.3478 5.9446L10.4881 5.50389L10.1195 5.23546H10.5762L10.7164 4.79875ZM13.3166 4.79875L13.4568 5.23947H13.9176L13.545 5.5079L13.6892 5.9446L13.3166 5.67216L12.944 5.9446L13.0883 5.50389L12.7157 5.23546H13.1764L13.3166 4.79875ZM1.62573 5.90454L1.76596 6.34125H2.2267L1.8541 6.60968L1.99433 7.05039L1.62573 6.77795L1.25313 7.04639L1.39336 6.60968L1.02476 6.34125H1.4815L1.62573 5.90454ZM4.22193 5.90454L4.36616 6.34125H4.8229L4.45029 6.60968L4.59453 7.05039L4.22193 6.77795L3.84932 7.04639L3.99356 6.60968L3.62095 6.34125H4.0817L4.22193 5.90454ZM6.82213 5.90454L6.96235 6.34125H7.4231L7.0505 6.60968L7.19072 7.05039L6.82213 6.77795L6.44953 7.04639L6.58975 6.60968L6.22116 6.34125H6.6779L6.82213 5.90454ZM9.41832 5.90454L9.56256 6.34125H10.0193L9.6507 6.60968L9.79093 7.05039L9.41832 6.77795L9.04973 7.04639L9.18995 6.60968L8.81735 6.34125H9.2821L9.41832 5.90454ZM12.0185 5.90454L12.1588 6.34125H12.6195L12.2469 6.60968L12.3871 7.05039L12.0185 6.77795L11.6459 7.04639L11.7861 6.60968L11.4176 6.34125H11.8743L12.0185 5.90454ZM0.323627 7.01033L0.46786 7.44703H0.924598L0.556003 7.71547L0.696229 8.15618L0.323627 7.88374L-0.0449682 8.15217L0.0952584 7.71547L-0.277344 7.44703H0.187407L0.323627 7.01033ZM2.92383 7.01033L3.06406 7.44703H3.5248L3.1522 7.71547L3.29242 8.15217L2.92383 7.88374L2.55123 8.15217L2.69145 7.71547L2.32286 7.44703H2.7796L2.92383 7.01033ZM5.52002 7.01033L5.66426 7.44703H6.11699L5.74839 7.71547L5.88862 8.15618L5.51602 7.88374L5.14742 8.15217L5.28765 7.71547L4.91505 7.44703H5.37579L5.52002 7.01033ZM8.12023 7.01033L8.26045 7.44703H8.7212L8.34859 7.71547L8.49283 8.15618L8.12023 7.88374L7.74762 8.15217L7.89186 7.71547L7.51925 7.44703H7.97599L8.12023 7.01033ZM10.7164 7.01033L10.8607 7.44703H11.3174L10.9488 7.71547L11.089 8.15618L10.7164 7.88374L10.3478 8.15217L10.4881 7.71547L10.1195 7.44703H10.5762L10.7164 7.01033ZM13.3166 7.01033L13.4568 7.44703H13.9176L13.545 7.71547L13.6892 8.15618L13.3166 7.88374L12.944 8.15217L13.0883 7.71547L12.7157 7.44703H13.1764L13.3166 7.01033ZM1.62573 8.11611L1.76596 8.55282H2.2267L1.8541 8.82125L1.99433 9.25796L1.62573 8.98552L1.25313 9.25796L1.39336 8.81725L1.02476 8.54881H1.4815L1.62573 8.11611ZM4.22193 8.11611L4.36616 8.55282H4.8229L4.45029 8.82125L4.59453 9.25796L4.22193 8.98552L3.84932 9.25796L3.99356 8.81725L3.62095 8.54881H4.0817L4.22193 8.11611ZM6.82213 8.11611L6.96235 8.55282H7.4231L7.0505 8.82125L7.19072 9.25796L6.82213 8.98552L6.44953 9.25796L6.58975 8.81725L6.22116 8.54881H6.6779L6.82213 8.11611ZM9.41832 8.11611L9.56256 8.55282H10.0193L9.6507 8.82125L9.79093 9.25796L9.41832 8.98552L9.04973 9.25796L9.18995 8.81725L8.81735 8.54881H9.2821L9.41832 8.11611ZM12.0185 8.11611L12.1588 8.55282H12.6195L12.2469 8.82125L12.3871 9.25796L12.0185 8.98552L11.6459 9.25796L11.7861 8.81725L11.4176 8.54881H11.8743L12.0185 8.11611ZM0.323627 9.21789L0.46786 9.65861H0.924598L0.556003 9.92704L0.696229 10.3597L0.323627 10.0913L-0.0449682 10.3597L0.0952584 9.92303L-0.277344 9.6546H0.187407L0.323627 9.21789ZM2.92383 9.21789L3.06406 9.65861H3.5248L3.1522 9.92704L3.29643 10.3597L2.92383 10.0913L2.55123 10.3597L2.69546 9.92303L2.32286 9.6546H2.7796L2.92383 9.21789ZM5.52002 9.21789L5.66426 9.65861H6.11699L5.74839 9.92704L5.88862 10.3597L5.51602 10.0913L5.14742 10.3597L5.28765 9.92303L4.91505 9.6546H5.37579L5.52002 9.21789ZM8.12023 9.21789L8.26045 9.65861H8.7212L8.34859 9.92704L8.49283 10.3597L8.12023 10.0913L7.74762 10.3597L7.89186 9.92303L7.51925 9.6546H7.97599L8.12023 9.21789ZM10.7164 9.21789L10.8607 9.65861H11.3174L10.9488 9.92704L11.089 10.3597L10.7164 10.0913L10.3478 10.3597L10.4881 9.92303L10.1195 9.6546H10.5762L10.7164 9.21789ZM13.3166 9.21789L13.4568 9.65861H13.9176L13.545 9.92704L13.6892 10.3597L13.3166 10.0913L12.944 10.3597L13.0883 9.92303L12.7157 9.6546H13.1764L13.3166 9.21789ZM1.62573 10.3237L1.76596 10.7604H2.2267L1.8541 11.0288L1.99433 11.4695L1.62573 11.1971L1.25313 11.4655L1.39336 11.0288L1.02476 10.7604H1.4815L1.62573 10.3237ZM4.22193 10.3237L4.36616 10.7604H4.8229L4.45029 11.0288L4.59453 11.4695L4.22193 11.1971L3.84932 11.4655L3.99356 11.0288L3.62095 10.7604H4.0817L4.22193 10.3237ZM6.82213 10.3237L6.96235 10.7604H7.4231L7.0505 11.0288L7.19072 11.4695L6.82213 11.1971L6.44953 11.4655L6.58975 11.0288L6.22116 10.7604H6.6779L6.82213 10.3237ZM9.41832 10.3237L9.56256 10.7604H10.0193L9.6507 11.0288L9.79093 11.4695L9.41832 11.1971L9.04973 11.4655L9.18995 11.0288L8.81735 10.7604H9.2821L9.41832 10.3237ZM12.0185 10.3237L12.1588 10.7604H12.6195L12.2469 11.0288L12.3871 11.4695L12.0185 11.1971L11.6459 11.4655L11.7861 11.0288L11.4176 10.7604H11.8743L12.0185 10.3237ZM0.323627 11.4295L0.46786 11.8662H0.924598L0.556003 12.1346L0.696229 12.5713L0.323627 12.3029L-0.0449682 12.5713L0.0952584 12.1306L-0.277344 11.8622H0.187407L0.323627 11.4295ZM2.92383 11.4295L3.06406 11.8662H3.5248L3.1522 12.1346L3.29643 12.5713L2.92383 12.3029L2.55123 12.5713L2.69546 12.1306L2.32286 11.8622H2.7796L2.92383 11.4295ZM5.52002 11.4295L5.66426 11.8662H6.11699L5.75641 12.1346L5.89663 12.5713L5.52403 12.3029L5.15544 12.5713L5.29566 12.1306L4.92306 11.8622H5.3838L5.52002 11.4295ZM8.12023 11.4295L8.26045 11.8662H8.7212L8.34859 12.1346L8.49283 12.5713L8.12023 12.3029L7.74762 12.5713L7.89186 12.1306L7.51925 11.8622H7.97599L8.12023 11.4295ZM10.7164 11.4295L10.8607 11.8662H11.3174L10.9488 12.1346L11.089 12.5713L10.7164 12.3029L10.3478 12.5713L10.4881 12.1306L10.1195 11.8622H10.5762L10.7164 11.4295ZM13.3166 11.4295L13.4568 11.8662H13.9176L13.545 12.1346L13.6892 12.5713L13.3166 12.3029L12.944 12.5713L13.0883 12.1306L12.7157 11.8622H13.1764L13.3166 11.4295Z" fill="white"/>
</g>
</svg>
