<svg width="24" height="24" viewBox="0 0 24 24" fill="none" xmlns="http://www.w3.org/2000/svg">
<mask id="mask0_23_4922" style="mask-type:alpha" maskUnits="userSpaceOnUse" x="2" y="2" width="20" height="20">
<path fill-rule="evenodd" clip-rule="evenodd" d="M12 22C17.5228 22 22 17.5228 22 12C22 6.47715 17.5228 2 12 2C6.47715 2 2 6.47715 2 12C2 17.5228 6.47715 22 12 22Z" fill="white"/>
</mask>
<g mask="url(#mask0_23_4922)">
<g clip-path="url(#clip0_23_4922)">
<rect x="-2" y="2" width="28" height="20" rx="2.5" fill="#1A47B8"/>
<path fill-rule="evenodd" clip-rule="evenodd" d="M0.97863 2H-2V5.33333L23.0052 22L26 22V18.6667L0.97863 2Z" fill="white"/>
<path d="M-1.00654 2L26 20.0472V22H25.0298L-2 3.93408V2H-1.00654Z" fill="#F93939"/>
<path fill-rule="evenodd" clip-rule="evenodd" d="M23.3333 2H26V5.33333C26 5.33333 8.67974 16.4374 0.666667 22H-2V18.6667L23.3333 2Z" fill="white"/>
<path d="M26 2H25.0957L-2 20.0628V22H-1.00654L26 3.94868V2Z" fill="#F93939"/>
<path fill-rule="evenodd" clip-rule="evenodd" d="M8.18277 2H15.8405V8.16909H26V15.8268H15.8405V22H8.18277V15.8268H-2V8.16909H8.18277V2Z" fill="white"/>
<path fill-rule="evenodd" clip-rule="evenodd" d="M9.78947 2H14.2105V9.69231H26V14.3077H14.2105V22H9.78947V14.3077H-2V9.69231H9.78947V2Z" fill="#F93939"/>
</g>
</g>
<defs>
<clipPath id="clip0_23_4922">
<rect x="-2" y="2" width="28" height="20" rx="2.5" fill="white"/>
</clipPath>
</defs>
</svg>
